<?xml version="1.0" encoding="utf-8"?>
<!-- Generator: Adobe Illustrator 25.2.1, SVG Export Plug-In . SVG Version: 6.00 Build 0)  -->
<svg version="1.1" xmlns="http://www.w3.org/2000/svg" xmlns:xlink="http://www.w3.org/1999/xlink" x="0px" y="0px"
	 viewBox="0 0 1585 271" style="enable-background:new 0 0 1585 271;" xml:space="preserve">
<style type="text/css">
	.st0{fill:#FFFFFF;}
	.st1{fill:none;}
	.st2{fill:#FFFFFF;stroke:#1D1D1B;stroke-width:10;stroke-miterlimit:10;}
</style>
<g id="Layer_2">
	<g>
		<path d="M1333,108.5c-39.76,0-72,32.24-72,72c0,39.76,32.24,72,72,72s72-32.24,72-72C1405,140.74,1372.76,108.5,1333,108.5z
			 M1333,189.5c-4.97,0-9-4.03-9-9c0-4.97,4.03-9,9-9s9,4.03,9,9C1342,185.47,1337.97,189.5,1333,189.5z"/>
		<path class="st0" d="M1333,144.5c-19.88,0-36,16.12-36,36s16.12,36,36,36s36-16.12,36-36S1352.88,144.5,1333,144.5z M1333,189.5
			c-4.97,0-9-4.03-9-9c0-4.97,4.03-9,9-9s9,4.03,9,9C1342,185.47,1337.97,189.5,1333,189.5z"/>
	</g>
	<path class="st1" d="M45.5,180.5c0-4.97-4.03-9-9-9v18C41.47,189.5,45.5,185.47,45.5,180.5z"/>
	<path class="st1" d="M189.5,189.5c4.97,0,9-4.03,9-9c0-4.97-4.03-9-9-9v9h-9C180.5,185.47,184.53,189.5,189.5,189.5z"/>
	<path class="st1" d="M342.5,171.5c-4.97,0-9,4.03-9,9h18C351.5,175.53,347.47,171.5,342.5,171.5z"/>
	<path class="st1" d="M189.5,189.5c4.97,0,9-4.03,9-9h-18C180.5,185.47,184.53,189.5,189.5,189.5z"/>
	<g>
		<path d="M153.5,108.5v72c0,19.88-16.12,36-36,36v36c39.76,0,72-32.24,72-72v-72H153.5z"/>
		<path class="st0" d="M126.5,108.5v72c0,4.97-4.03,9-9,9v27c19.88,0,36-16.12,36-36v-72H126.5z"/>
	</g>
	<path class="st1" d="M423.5,189.5c4.97,0,9-4.03,9-9c0-4.97-4.03-9-9-9v9h-9C414.5,185.47,418.53,189.5,423.5,189.5z"/>
	<g>
		<path d="M442,108.5v36c19.88,0,36,16.12,36,36s-16.12,36-36,36s-36-16.12-36-36v-72h-36v72c0,39.76,32.24,72,72,72s72-32.24,72-72
			C514,140.74,481.76,108.5,442,108.5z"/>
		<path class="st0" d="M442,144.5v27c4.97,0,9,4.03,9,9c0,4.97-4.03,9-9,9s-9-4.03-9-9v-72h-27v72c0,19.88,16.12,36,36,36
			s36-16.12,36-36S461.88,144.5,442,144.5z"/>
	</g>
	<g>
		<path class="st0" d="M289,144.5c-19.88,0-36,16.12-36,36v72h27v-72c0-4.97,4.03-9,9-9s9,4.03,9,9v72h27v-72
			C325,160.62,308.88,144.5,289,144.5z"/>
		<path d="M289,108.5c-39.76,0-72,32.24-72,72v72h36v-36h27v-27h-27v-9c0-19.88,16.12-36,36-36s36,16.12,36,36v72h36v-72
			C361,140.74,328.76,108.5,289,108.5z"/>
	</g>
	<circle class="st1" cx="576.5" cy="180.5" r="9"/>
	<circle class="st1" cx="576.5" cy="180.5" r="9"/>
	<g>
		<path d="M595,108.5c-39.76,0-72,32.24-72,72c0,3.05,0.21,6.05,0.58,9h36.55c-0.74-2.88-1.13-5.89-1.13-9c0-19.88,16.12-36,36-36
			h72v-36H595z"/>
		<path d="M666.42,171.5h-36.55c0.74,2.88,1.13,5.89,1.13,9c0,19.88-16.12,36-36,36h-72v36h72c39.76,0,72-32.24,72-72
			C667,177.45,666.79,174.45,666.42,171.5z"/>
		<path class="st0" d="M667,144.5h-72c-19.88,0-36,16.12-36,36c0,3.11,0.39,6.12,1.13,9H523v27h72c19.88,0,36-16.12,36-36
			c0-3.11-0.39-6.12-1.13-9H667V144.5z M604,180.5c0,4.97-4.03,9-9,9s-9-4.03-9-9c0-4.97,4.03-9,9-9S604,175.53,604,180.5z"/>
	</g>
	<g>
		<path class="st0" d="M739,108.5v72c0,4.97,4.03,9,9,9v27c-19.88,0-36-16.12-36-36v-72H739z"/>
		<path d="M712,180.5v-9h27v-27h-27v-36h-36v72c0,39.76,32.24,72,72,72v-36C728.12,216.5,712,200.38,712,180.5z"/>
	</g>
	<g>
		<path d="M793,252.5v-72c0-19.88,16.12-36,36-36v-36c-39.76,0-72,32.24-72,72v72H793z"/>
		<path class="st0" d="M820,252.5v-72c0-4.97,4.03-9,9-9v-27c-19.88,0-36,16.12-36,36v72H820z"/>
	</g>
	<g>
		<path class="st0" d="M910,144.5c-19.88,0-36,16.12-36,36v72h27v-72c0-4.97,4.03-9,9-9s9,4.03,9,9v72h27v-72
			C946,160.62,929.88,144.5,910,144.5z"/>
		<path d="M910,108.5c-39.76,0-72,32.24-72,72v72h36v-36h27v-27h-27v-9c0-19.88,16.12-36,36-36s36,16.12,36,36v72h36v-72
			C982,140.74,949.76,108.5,910,108.5z"/>
	</g>
	<path class="st1" d="M1035.5,180.5c0,4.97,4.03,9,9,9v-18C1039.53,171.5,1035.5,175.53,1035.5,180.5z"/>
	<g>
		<path d="M36.5,108.5h-18v36h18c19.88,0,36,16.12,36,36s-16.12,36-36,36h-18v36h18c39.76,0,72-32.24,72-72
			C108.5,140.74,76.26,108.5,36.5,108.5z"/>
		<path class="st0" d="M36.5,144.5h-18v27h18c4.97,0,9,4.03,9,9c0,4.97-4.03,9-9,9h-18v27h18c19.88,0,36-16.12,36-36
			S56.38,144.5,36.5,144.5z"/>
	</g>
	<g>
		<path d="M1063,108.5h18v36h-18c-19.88,0-36,16.12-36,36s16.12,36,36,36h18v36h-18c-39.76,0-72-32.24-72-72
			C991,140.74,1023.24,108.5,1063,108.5z"/>
		<path class="st0" d="M1063,144.5h18v27h-18c-4.97,0-9,4.03-9,9c0,4.97,4.03,9,9,9h18v27h-18c-19.88,0-36-16.12-36-36
			S1043.12,144.5,1063,144.5z"/>
	</g>
	<g>
		<path class="st0" d="M1153,108.5v72c0,4.97,4.03,9,9,9v27c-19.88,0-36-16.12-36-36v-72H1153z"/>
		<path d="M1126,180.5v-9h27v-27h-27v-36h-36v72c0,39.76,32.24,72,72,72v-36C1142.12,216.5,1126,200.38,1126,180.5z"/>
	</g>
	<g>
		<path class="st0" d="M1486,144.5c-19.88,0-36,16.12-36,36v72h27v-72c0-4.97,4.03-9,9-9s9,4.03,9,9v72h27v-72
			C1522,160.62,1505.88,144.5,1486,144.5z"/>
		<path d="M1486,108.5c-39.76,0-72,32.24-72,72v72h36v-36l0,0v-27l0,0v-9c0-19.88,16.12-36,36-36s36,16.12,36,36v72h36v-72
			C1558,140.74,1525.76,108.5,1486,108.5z"/>
	</g>
	<rect x="1207" y="108.5" width="45" height="144"/>
	<rect x="1180" y="108.5" class="st0" width="27" height="144"/>
	<path class="st2" d="M1216,18.5c-19.88,0-36,16.12-36,36s16.12,36,36,36s36-16.12,36-36S1235.88,18.5,1216,18.5z M1216,63.5
		c-4.97,0-9-4.03-9-9c0-4.97,4.03-9,9-9s9,4.03,9,9C1225,59.47,1220.97,63.5,1216,63.5z"/>
	<polygon points="666.5,171.5 557.5,171.5 523.5,189.5 631.5,189.5 	"/>
</g>
<g id="Layer_3">
</g>
</svg>
